<svg id="visual" viewBox="0 0 1345 500" width="1345" height="500" xmlns="http://www.w3.org/2000/svg" xmlns:xlink="http://www.w3.org/1999/xlink" version="1.1"><rect width="1345" height="500" fill="#FFFFFF"></rect><g><g transform="translate(122 18)"><path d="M107.1 -38.3C119.5 3.3 96.8 52.7 59.6 79C22.3 105.4 -29.5 108.6 -66.4 83.6C-103.4 58.6 -125.4 5.3 -111.9 -37.9C-98.3 -81.1 -49.2 -114.2 -0.9 -114C47.4 -113.7 94.7 -79.9 107.1 -38.3Z" stroke="#FCAF3C" fill="none" stroke-width="20"></path></g><g transform="translate(1290 2)"><path d="M60.6 -16.2C70.4 10.3 64.4 45.4 42 62.9C19.7 80.3 -19.2 80.1 -42.3 62.3C-65.4 44.6 -72.7 9.3 -63 -17.1C-53.3 -43.5 -26.7 -61.1 -0.6 -60.9C25.4 -60.7 50.9 -42.7 60.6 -16.2Z" stroke="#FCAF3C" fill="none" stroke-width="20"></path></g><g transform="translate(999 410)"><path d="M54.8 -19.7C62 4.6 52.9 32.4 33.6 46.3C14.4 60.3 -14.9 60.6 -33.6 46.9C-52.3 33.1 -60.4 5.4 -53.1 -19C-45.7 -43.4 -22.8 -64.6 0.5 -64.7C23.7 -64.9 47.5 -44 54.8 -19.7Z" stroke="#FCAF3C" fill="none" stroke-width="20"></path></g></g></svg>